<?xml version="1.0" encoding="utf-8"?>
<!-- Generator: Adobe Illustrator 23.0.1, SVG Export Plug-In . SVG Version: 6.00 Build 0)  -->
<svg version="1.1" id="Layer_1" xmlns="http://www.w3.org/2000/svg" xmlns:xlink="http://www.w3.org/1999/xlink" x="0px" y="0px"
	 viewBox="0 0 245.3 107" style="enable-background:new 0 0 245.3 107;" xml:space="preserve">
<style type="text/css">
	.st0{fill:#E33192;}
</style>
<path class="st0" d="M230.4,88.1l-27.5-43.7l17.5-23.2c9.9-11.9,16.5-18.8,19.9-20.8l0.2-0.3h-23.9l-0.2,0.3c4.2,2,6.4,5.1,6.7,9.2
	l0,0c0.1,2.5-0.6,5-2.1,7l-19.3,25.7l-14.9-23.7c-2.1-3.4-2.7-6.9-1.8-10.5c1-3.6,3.2-6.2,6.7-7.9V0h-43.3l8.8,14
	c1.1,1.6,2.2,3.3,3.3,5.1l14.7,23.3l0,0l12.1,19.1l-24.6,32.7c-2.2-3.2-4.5-6.8-6.8-11L120.3,19l-1.3-2.4l-12.7,22L73.5,95.4l0,0
	l-1,1.7c-1.7,2.9-4.1,5.2-6.9,6.7c0,0,0,0,0,0c-0.1,0-0.2,0-0.2,0.1c-0.9,0.4-1.9,0.7-3,0.8c-0.1,0-0.2,0-0.2,0.1l-34.1,0l24.5-41.9
	l19.8-33.8L89.1,0.3V0H72.9h-7.6h-2.6H18.2H7.6L5.1,27.5h0.3c3.2-7.4,6.4-13,9.5-16.8C18,7,21.4,4.4,25.1,3c1.3-0.5,2.7-0.7,4-0.7
	h32.2L0,106.6v0.5h17.7h4h4.9h22.3h14.9h2.9h2.1h3.9h15.1v-0.3c-5.1-1.8-8.2-4.8-9.2-8.8l0-0.1c-0.7-2.9-0.3-6.1,1.2-8.7l27.8-48.1
	l17.1,32.3H97.1l-1.2,2.1h29.9l6,11.3c5.3,9.8,3.5,16.4-5.5,19.9l0,0.3h48.8l0-0.3c-3.5-1.9-7.2-5.4-11.1-10.6l24.5-32.5l15.7,24.8
	c0.6,0.9,1,1.8,1.3,2.7l10.1,16h29.7v-0.3C240.4,102.3,235.4,96.1,230.4,88.1z"/>
</svg>
